<svg width="92" height="72" viewBox="0 0 92 72" fill="none" xmlns="http://www.w3.org/2000/svg">
<g clip-path="url(#clip0_301_386)">
<path d="M53.5333 22.8127C54.4786 19.0679 51.4621 12.7941 51.9408 10.2993C52.6345 6.67378 51.169 4.27969 48.641 3.58053C48.7023 3.28955 48.7318 2.99179 48.729 2.69335C48.729 1.25001 47.4906 0 46.2376 0C44.9846 0 43.9612 1.30563 43.9612 2.69335C43.9593 2.94076 43.9765 3.18791 44.0125 3.43223C41.2989 4.12344 39.704 7.24847 40.3268 10.3655C41.0913 14.1924 38.8955 18.0457 38.8955 22.8127H53.5333Z" fill="#403334"/>
<path d="M28.52 45.0242L26.3804 43.4934C27.0374 41.78 32.2643 40.7047 33.913 36.3297C35.9891 30.8186 33.6688 23.9753 42.2175 21.0701L50.7027 21.2263C57.7615 22.9663 56.8846 26.2714 60.1331 34.9526C62.4193 41.0649 66.6765 41.1523 66.7816 42.4368C66.8695 43.4961 64.8276 43.9251 64.6053 43.9198C61.6011 43.8615 58.6652 42.2222 58.0106 41.1523C55.2188 36.5442 54.5911 35.04 54.5374 34.0177C54.5374 34.0177 54.3737 35.183 54.5936 39.4071C54.8574 44.4866 55.9687 44.7037 54.7621 46.8462C54.7621 46.8462 50.3094 48.3081 47.3369 48.1333C44.4548 47.9612 39.7848 46.0491 39.7848 46.0491C38.7662 44.4203 39.4452 43.8536 39.7139 39.6375C39.985 35.3445 39.9582 33.6205 39.9582 33.6205C39.7872 35.2095 40.1462 36.7746 36.6974 41.1523C34.8582 43.4881 30.5961 45.4373 28.52 45.0242Z" fill="#FF9B00"/>
<g opacity="0.61">
<path opacity="0.61" d="M40.0973 32.8048L46.0399 32.8286C47.8449 32.8286 49.6475 32.8525 51.4501 32.773C52.427 32.7307 53.3845 32.6645 54.3493 32.5532C54.5935 32.5241 54.5935 32.1189 54.3493 32.148C50.7344 32.5744 47.0707 32.4261 43.4411 32.4129L40.0973 32.3996C40.0515 32.4053 40.0091 32.4291 39.9784 32.4665C39.9477 32.5038 39.9307 32.5522 39.9307 32.6022C39.9307 32.6523 39.9477 32.7006 39.9784 32.738C40.0091 32.7753 40.0515 32.7991 40.0973 32.8048Z" fill="white"/>
</g>
<g opacity="0.61">
<path opacity="0.61" d="M54.6252 32.4923C55.4236 32.2739 56.1976 31.9613 56.9333 31.5601C57.2917 31.3868 57.6379 31.1849 57.9689 30.9563C58.3045 30.7559 58.5936 30.4751 58.814 30.1353C58.8389 30.089 58.8459 30.0338 58.8333 29.9818C58.8207 29.9299 58.7896 29.8856 58.7469 29.8586C58.7041 29.8315 58.6532 29.824 58.6053 29.8377C58.5575 29.8513 58.5165 29.885 58.4916 29.9314C58.2727 30.2513 57.9874 30.5108 57.6587 30.6888C57.3443 30.8965 57.0179 31.0822 56.6817 31.245C55.9931 31.6115 55.2712 31.8991 54.5275 32.103C54.2832 32.156 54.3931 32.5453 54.6276 32.4923H54.6252Z" fill="white"/>
</g>
<g opacity="0.61">
<path opacity="0.61" d="M34.626 31.0967C35.0088 31.3481 35.419 31.5465 35.8473 31.6872C36.2796 31.8594 36.7168 32.0103 37.1613 32.148C38.0426 32.4207 38.9404 32.626 39.8481 32.7624C40.0923 32.7995 40.1851 32.4076 39.9458 32.3731C39.0658 32.2389 38.1951 32.0407 37.3396 31.7799C36.9195 31.6502 36.5019 31.5151 36.0891 31.3509C35.6463 31.2084 35.222 31.0055 34.8263 30.7471C34.6285 30.6014 34.4404 30.951 34.6382 31.0967H34.626Z" fill="white"/>
</g>
<g opacity="0.61">
<path opacity="0.61" d="M39.8702 36.3509C43.6901 36.6528 47.5225 36.7271 51.3499 36.5734C52.4311 36.531 53.5139 36.4701 54.5984 36.3906C54.8427 36.3721 54.8427 35.9669 54.5984 35.9855C50.7774 36.2665 46.9452 36.3213 43.1187 36.1496C42.0367 36.0993 40.9522 36.0331 39.8726 35.9484C39.6284 35.9272 39.6284 36.3324 39.8726 36.3509H39.8702Z" fill="white"/>
</g>
<g opacity="0.61">
<path opacity="0.61" d="M55.0164 36.2582C55.5348 36.0902 56.0403 35.8786 56.5283 35.6253C57.0046 35.3566 57.4676 35.0614 57.9156 34.7407C58.751 34.1581 59.5423 33.4642 60.0284 32.5055C60.1456 32.2778 59.8232 32.0738 59.7084 32.3016C59.2395 33.2259 58.4701 33.8906 57.6616 34.4362C57.2537 34.7195 56.8385 34.9976 56.4086 35.2307C55.9289 35.4844 55.4306 35.6944 54.9187 35.8583C54.6916 35.9378 54.7893 36.3297 55.0164 36.2503V36.2582Z" fill="white"/>
</g>
<g opacity="0.61">
<path opacity="0.61" d="M34.1745 33.9515C34.5724 34.2391 34.9994 34.4764 35.4471 34.6586C35.9161 34.8758 36.3826 35.0956 36.8515 35.3074C37.7748 35.7285 38.72 36.1231 39.7312 36.1761C39.9754 36.1761 39.9754 35.7815 39.7312 35.7709C38.7542 35.7206 37.8407 35.3207 36.9516 34.9181C36.4998 34.7116 36.0504 34.4997 35.601 34.2905C35.1657 34.1139 34.7509 33.8828 34.3651 33.6019C34.1697 33.4483 33.984 33.8006 34.1745 33.9515Z" fill="white"/>
</g>
<path d="M44.0692 16.4964V19.5367C44.0702 19.6743 44.0414 19.8103 43.9849 19.9336C43.9285 20.0569 43.8461 20.1641 43.7443 20.2464C43.264 20.5809 42.7513 20.857 42.2153 21.0701C43.474 21.8689 44.9092 22.2817 46.3676 22.2644C49.5623 22.2644 50.6932 21.2263 50.6932 21.2263C49.9956 21.0806 49.3395 20.7585 48.7783 20.2862C48.6996 20.2125 48.637 20.1208 48.5947 20.0178C48.5525 19.9148 48.5318 19.803 48.5341 19.6903L48.556 16.4964H44.0692Z" fill="#FFA18A"/>
<path opacity="0.4" d="M48.5362 18.0775C47.5348 19.0282 45.1411 19.0891 44.0688 18.096V17.4127L48.5362 17.3969V18.0775Z" fill="#FF7A5A"/>
<path d="M51.0448 10.8899H50.9446V8.89041C50.9446 6.04611 49.0102 4.67958 46.3772 4.67163C43.7442 4.67163 41.4141 6.02228 41.4067 8.86658V10.8608H41.3652C41.0918 10.8608 40.8297 10.9785 40.6364 11.1881C40.4431 11.3977 40.3345 11.682 40.3345 11.9784C40.3345 12.2748 40.4431 12.559 40.6364 12.7686C40.8297 12.9782 41.0918 13.096 41.3652 13.096H41.4409C42.115 15.6887 43.9689 18.2946 46.1207 18.2946C48.6292 18.2946 50.2925 15.9773 50.9104 13.1145C50.9552 13.1172 51 13.1172 51.0448 13.1145C51.1845 13.1219 51.3242 13.0984 51.4553 13.0455C51.5864 12.9926 51.7063 12.9114 51.8076 12.8067C51.9089 12.7021 51.9895 12.5763 52.0447 12.4368C52.0998 12.2974 52.1282 12.1473 52.1282 11.9956C52.1282 11.8439 52.0998 11.6938 52.0447 11.5543C51.9895 11.4149 51.9089 11.289 51.8076 11.1844C51.7063 11.0798 51.5864 10.9986 51.4553 10.9457C51.3242 10.8928 51.1845 10.8693 51.0448 10.8767V10.8899Z" fill="#FFA18A"/>
<path d="M51.5893 12.1744C51.5827 12.125 51.5633 12.0787 51.5335 12.0408C51.5037 12.0028 51.4646 11.9748 51.4208 11.9599C51.3784 11.9438 51.3337 11.9366 51.2889 11.9387C51.337 11.8325 51.4093 11.7413 51.4989 11.6738C51.5478 11.6368 51.4989 11.5467 51.4525 11.5865C51.3345 11.6743 51.2428 11.7976 51.1887 11.9413C51.1375 12.1013 51.1274 12.2734 51.1594 12.4392C51.1594 12.5054 51.2595 12.4763 51.2498 12.4127C51.2278 12.2947 51.2278 12.1732 51.2498 12.0552C51.29 12.0459 51.3316 12.0459 51.3719 12.0552H51.3866L51.4134 12.0711H51.4256L51.4452 12.0923C51.446 12.1002 51.446 12.1082 51.4452 12.1161V12.1426V12.1558V12.185C51.4464 12.1911 51.4464 12.1974 51.4452 12.2035C51.4442 12.2079 51.4442 12.2124 51.4452 12.2168C51.4462 12.2273 51.4462 12.238 51.4452 12.2485C51.4452 12.2485 51.4452 12.2485 51.4452 12.2618C51.441 12.2724 51.4352 12.2822 51.4281 12.2909C51.4193 12.3004 51.4144 12.3132 51.4144 12.3267C51.4144 12.3401 51.4193 12.3529 51.4281 12.3624C51.4368 12.3719 51.4487 12.3772 51.461 12.3772C51.4734 12.3772 51.4853 12.3719 51.494 12.3624C51.5439 12.3127 51.5773 12.2466 51.5893 12.1744Z" fill="#FF7A5A"/>
<path d="M41.2504 11.936C41.1967 11.7913 41.1049 11.667 40.9865 11.5785C40.9377 11.5387 40.8913 11.6288 40.9401 11.6658C41.0299 11.738 41.1013 11.8337 41.1478 11.9439C41.1032 11.9387 41.0582 11.9443 41.0159 11.9603C40.9737 11.9763 40.9353 12.0024 40.9035 12.0366C40.8753 12.0727 40.8553 12.1155 40.8451 12.1615C40.8349 12.2075 40.8348 12.2554 40.8449 12.3015C40.857 12.3564 40.8813 12.4073 40.9157 12.4498C40.9251 12.4589 40.9373 12.4639 40.9499 12.4639C40.9625 12.4639 40.9747 12.4589 40.9841 12.4498C40.993 12.4399 40.9981 12.4265 40.9981 12.4127C40.9981 12.3988 40.993 12.3855 40.9841 12.3756L40.9695 12.3518C40.9695 12.3518 40.9695 12.3518 40.9695 12.3385C40.9695 12.3253 40.9695 12.3253 40.9695 12.3385C40.9705 12.3288 40.9705 12.3191 40.9695 12.3094C40.9706 12.3006 40.9706 12.2917 40.9695 12.2829V12.2697C40.9695 12.2856 40.9695 12.2697 40.9695 12.2697V12.222C40.9729 12.2048 40.9778 12.1879 40.9841 12.1717V12.1584C40.9841 12.1584 40.9841 12.1425 40.9841 12.1584L41.0012 12.1373L41.0256 12.1214H41.0598H41.1624C41.1857 12.2392 41.1857 12.361 41.1624 12.4789C41.1624 12.5451 41.243 12.5716 41.2552 12.508C41.3072 12.3212 41.3055 12.1217 41.2504 11.936Z" fill="#FF7A5A"/>
<path d="M45.1901 10.2067C45.3 10.0822 45.2365 9.95771 44.8921 9.84913C44.5235 9.78162 44.1461 9.79695 43.7832 9.89416C43.2654 10.0292 42.8428 10.5165 43.004 10.4424C43.3484 10.2861 43.4315 10.1775 44.2668 10.1537C44.6698 10.1378 45.0973 10.3179 45.1901 10.2067Z" fill="#403334"/>
<path d="M47.3836 10.1934C47.2762 10.0662 47.3421 9.94177 47.6865 9.83849C48.0557 9.77313 48.4334 9.79208 48.7954 9.89411C49.3108 10.0318 49.7309 10.5244 49.5696 10.4503C49.2277 10.2887 49.1447 10.1854 48.3069 10.1483C47.9063 10.1298 47.4789 10.3046 47.3836 10.1934Z" fill="#403334"/>
<path d="M46.2014 12.6299C46.1599 12.8311 46.1062 13.0298 46.0524 13.2284C46.0075 13.3687 45.9748 13.5132 45.9547 13.6601C45.9445 13.7038 45.9448 13.7496 45.9555 13.7931C45.9661 13.8367 45.9869 13.8766 46.0158 13.909C46.0555 13.9404 46.1007 13.9624 46.1486 13.9738C46.1965 13.9852 46.2461 13.9857 46.2942 13.9752C46.3723 13.9598 46.4464 13.9265 46.5116 13.8777C46.5769 13.8288 46.6319 13.7655 46.6728 13.6919C46.7046 13.6389 46.6264 13.5886 46.5947 13.6415C46.556 13.7142 46.5005 13.7746 46.4337 13.8169C46.3669 13.8592 46.291 13.8818 46.2136 13.8825C46.1233 13.8825 46.0476 13.8455 46.0427 13.7395C46.0484 13.5908 46.0764 13.4441 46.1257 13.3052C46.1843 13.0907 46.2454 12.8762 46.2894 12.6564C46.2894 12.5954 46.2136 12.569 46.2014 12.6299Z" fill="#FF7A5A"/>
<path d="M43.7245 13.7077C43.7658 13.8594 43.7645 14.021 43.7207 14.1719C43.6769 14.3227 43.5925 14.456 43.4784 14.5545C43.3644 14.6531 43.2257 14.7125 43.0803 14.7251C42.9349 14.7377 42.7893 14.703 42.6622 14.6254C42.5351 14.5478 42.4323 14.4308 42.3669 14.2895C42.3015 14.1481 42.2764 13.9888 42.295 13.8319C42.3136 13.675 42.375 13.5277 42.4712 13.4089C42.5675 13.29 42.6943 13.205 42.8354 13.1648C42.9266 13.1366 43.0221 13.1284 43.1163 13.1405C43.2106 13.1526 43.3017 13.1848 43.3843 13.2353C43.467 13.2857 43.5396 13.3535 43.598 13.4346C43.6564 13.5157 43.6994 13.6085 43.7245 13.7077Z" fill="#FF7A5A"/>
<path d="M50.1653 13.7077C50.2053 13.8592 50.2028 14.0202 50.1581 14.1702C50.1135 14.3202 50.0287 14.4524 49.9146 14.55C49.8005 14.6476 49.6622 14.7062 49.5173 14.7184C49.3724 14.7306 49.2274 14.6957 49.1008 14.6183C48.9742 14.5409 48.8717 14.4244 48.8063 14.2836C48.741 14.1428 48.7157 13.9842 48.7337 13.8278C48.7517 13.6714 48.8122 13.5244 48.9075 13.4054C49.0028 13.2864 49.1286 13.2008 49.2689 13.1595C49.4547 13.1048 49.653 13.1317 49.8207 13.2343C49.9885 13.3369 50.1123 13.5069 50.1653 13.7077Z" fill="#FF7A5A"/>
<path d="M50.9445 10.8952C52.2342 2.34114 44.4109 2.95025 42.2053 5.03977C40.7691 6.39836 41.4066 10.8661 41.4066 10.8661C41.4066 10.8661 44.8701 5.14571 46.3404 5.69391C47.9989 5.10068 50.9445 10.8952 50.9445 10.8952Z" fill="#403334"/>
<path d="M46.1991 15.7761C45.757 15.7761 45.3931 15.6304 45.3931 15.4238C45.3931 15.0954 45.8645 14.8809 46.1722 14.8809C46.48 14.8809 47.0149 15.061 47.0124 15.4106C47.0124 15.6119 46.6729 15.7814 46.1991 15.7761Z" fill="#FF7A5A"/>
<path d="M44.8728 11.9492C44.7991 11.865 44.7093 11.7993 44.6097 11.7568C44.5101 11.7142 44.4032 11.6959 44.2963 11.7029C44.0944 11.6844 43.8938 11.7518 43.737 11.891C43.7231 11.9057 43.7043 11.9139 43.6849 11.9136C43.6654 11.9134 43.6468 11.9048 43.6332 11.8897C43.6196 11.8745 43.6121 11.8542 43.6123 11.8331C43.6125 11.812 43.6205 11.7919 43.6344 11.7771C43.819 11.6095 44.0562 11.526 44.2963 11.544C44.4222 11.5367 44.548 11.5589 44.6652 11.6092C44.7824 11.6595 44.8882 11.7366 44.9754 11.8354C45.034 11.9148 44.9314 12.0287 44.8728 11.9492Z" fill="#403334"/>
<path d="M48.7586 11.9492C48.685 11.865 48.5952 11.7993 48.4956 11.7568C48.396 11.7142 48.289 11.6958 48.1822 11.7029C47.981 11.6839 47.781 11.7515 47.6253 11.891C47.6114 11.9061 47.5925 11.9145 47.5728 11.9145C47.5531 11.9145 47.5342 11.9061 47.5203 11.891C47.5063 11.8759 47.4985 11.8554 47.4985 11.834C47.4985 11.8127 47.5063 11.7922 47.5203 11.7771C47.7051 11.61 47.9421 11.5265 48.1822 11.544C48.3081 11.5367 48.4339 11.5589 48.5511 11.6092C48.6683 11.6594 48.7741 11.7366 48.8612 11.8354C48.9198 11.9148 48.8172 12.0287 48.7586 11.9492Z" fill="#403334"/>
<path d="M40.0436 45.5379C34.0571 43.3901 24.3409 45.0321 24.0014 47.4421C23.0244 54.4681 32.3889 54.7461 38.6563 55.7551C40.9205 56.1206 43.4949 57.4501 46.7458 57.27C66.7743 56.1683 70.7189 49.8308 69.7052 46.3404C69.1337 44.3779 64.8764 42.209 55.0503 45.9272C52.4075 46.9283 50.4975 47.9373 47.2563 47.7652C44.1153 47.5877 42.4641 46.4066 40.0436 45.5379Z" fill="#403334"/>
<path d="M28.6615 44.0337C28.3196 43.3557 26.8199 43.3902 26.5292 43.4484C25.0882 43.7397 23.354 45.3314 23.354 46.8913C23.354 48.3849 24.2846 49.7409 24.8341 49.6084C25.1981 49.521 25.2298 48.896 25.7183 47.0819C25.9137 46.3536 26.6953 45.4929 26.8541 45.5512C27.0593 45.636 26.3656 47.405 26.6929 47.5586C27.0202 47.7122 29.0939 44.8918 28.6615 44.0337Z" fill="#FFA18A"/>
<path d="M64.2877 42.744C64.6272 42.0687 66.1293 42.1005 66.4175 42.1587C67.8586 42.4501 69.5928 44.0417 69.5928 45.6016C69.5928 47.0926 68.6622 48.4485 68.1102 48.3187C67.7463 48.2313 67.7145 47.6063 67.2285 45.7922C67.0331 45.0639 66.2515 44.2032 66.0903 44.2615C65.8851 44.3463 66.5788 46.1153 66.2539 46.2663C65.9022 46.4543 63.8554 43.6153 64.2877 42.744Z" fill="#FFA18A"/>
<path d="M48.0869 56.1074C47.9526 54.7832 44.5111 55.9511 42.606 55.538C39.0619 54.7673 37.2593 55.6042 37.0468 56.502C36.7782 57.6381 37.7796 58.6471 39.399 59.2006C40.691 59.6402 41.8195 59.2006 44.2156 58.475C46.3967 57.8103 48.2481 57.6752 48.0869 56.1074Z" fill="#FFA18A"/>
<path d="M46.8267 54.2748C46.3138 53.0672 49.8163 52.1402 51.2525 50.7207C53.9222 48.0724 55.8639 47.789 56.4746 48.4405C56.6014 48.5763 56.7023 48.7379 56.7714 48.9161C56.8406 49.0942 56.8767 49.2854 56.8776 49.4787C56.8776 49.4787 54.6793 51.5973 52.569 52.7388C51.3478 53.4035 48.0016 55.0322 48.0016 55.0322C47.7567 55.0592 47.5104 55.0001 47.2989 54.8637C47.0873 54.7274 46.9218 54.5209 46.8267 54.2748Z" fill="#FFA18A"/>
<g opacity="0.5">
<path opacity="0.5" d="M28.6201 45.9776C29.9 46.1126 31.0822 46.735 32.2521 47.2673C33.4221 47.7996 34.6653 48.3505 35.8792 48.8748C38.2851 49.9562 40.7406 50.9029 43.236 51.7112C44.6445 52.1455 46.0701 52.511 47.5128 52.8076C47.591 52.8235 47.6227 52.6937 47.5446 52.6778C44.9785 52.1455 42.4543 51.3982 39.9948 50.4426C37.4986 49.4734 35.0341 48.3822 32.5867 47.2647C31.3069 46.6847 30.0197 45.9802 28.6201 45.8319C28.542 45.8319 28.542 45.959 28.6201 45.967V45.9776Z" fill="#D0B1A3"/>
</g>
<g opacity="0.5">
<path opacity="0.5" d="M57.1266 49.3966C58.2355 48.4087 59.5691 47.7705 60.8124 46.9866C62.0556 46.2027 63.289 45.3976 64.6764 44.9606C64.6922 44.9561 64.7058 44.9448 64.714 44.9295C64.7223 44.9141 64.7245 44.8957 64.7203 44.8785C64.7161 44.8613 64.7058 44.8466 64.6916 44.8377C64.6774 44.8287 64.6605 44.8263 64.6446 44.8309C63.2451 45.2625 61.9945 46.0782 60.7513 46.8701C59.5081 47.6619 58.1574 48.3055 57.0387 49.3012C56.9777 49.3568 57.0656 49.4495 57.1266 49.3966Z" fill="#D0B1A3"/>
</g>
<path d="M40.0508 33.5966C40.0215 32.6088 39.9165 31.6236 39.9018 30.6358C39.876 29.6486 40.004 28.6637 40.2804 27.7227C40.3048 27.6406 40.1851 27.6061 40.1607 27.6882C39.8887 28.6087 39.7584 29.5714 39.7748 30.5378C39.7748 31.5574 39.8969 32.5717 39.9263 33.5887C39.9291 33.6043 39.9369 33.6184 39.9483 33.6285C39.9596 33.6386 39.9738 33.6441 39.9885 33.6441C40.0032 33.6441 40.0175 33.6386 40.0288 33.6285C40.0402 33.6184 40.048 33.6043 40.0508 33.5887V33.5966Z" fill="#EE8700"/>
<path d="M54.613 33.9356C54.6809 33.445 54.6398 32.9438 54.4933 32.4738C54.3581 31.9211 54.257 31.3593 54.1904 30.7921C54.0585 29.6718 53.995 28.5437 53.9095 27.4181C53.9095 27.3334 53.7776 27.3334 53.785 27.4181C53.868 28.5145 53.9315 29.6162 54.0561 30.7073C54.1105 31.2056 54.1921 31.6999 54.3003 32.1877C54.4298 32.7492 54.613 33.3159 54.4957 33.8986C54.4811 33.9833 54.6008 34.0204 54.6179 33.9356H54.613Z" fill="#EE8700"/>
<path d="M33.7863 37.1666C34.0908 37.3365 34.3754 37.5454 34.6339 37.7889C34.8651 38.0216 35.0576 38.2957 35.203 38.5993C35.2396 38.6761 35.3471 38.5993 35.3104 38.5304C35.1599 38.2169 34.9608 37.9339 34.7218 37.6936C34.4558 37.4422 34.1631 37.2261 33.8498 37.05C33.8359 37.0446 33.8207 37.0445 33.8067 37.0499C33.7928 37.0554 33.781 37.0659 33.7735 37.0797C33.766 37.0935 33.7631 37.1098 33.7654 37.1257C33.7678 37.1415 33.7752 37.156 33.7863 37.1666Z" fill="#EE8700"/>
<path d="M33.3928 37.6724C33.6609 38.2126 33.8457 38.7968 33.9399 39.4017C33.9399 39.4865 34.0718 39.4494 34.0596 39.3647C33.9635 38.7492 33.7745 38.1551 33.5003 37.6062C33.4922 37.5907 33.4788 37.5794 33.463 37.5747C33.4472 37.57 33.4303 37.5722 33.416 37.581C33.4018 37.5898 33.3913 37.6044 33.387 37.6215C33.3826 37.6386 33.3847 37.6569 33.3928 37.6724Z" fill="#EE8700"/>
<path d="M60.6536 36.9944C60.1919 37.4341 59.9892 38.0803 59.806 38.6947C59.7816 38.7768 59.9013 38.8112 59.9257 38.7291C60.104 38.1385 60.2969 37.5135 60.7415 37.0898C60.8001 37.0342 60.7122 36.9388 60.6536 36.9944Z" fill="#EE8700"/>
<path d="M60.966 37.4473C60.7328 38.0736 60.5871 38.7341 60.5337 39.407C60.5366 39.4226 60.5443 39.4367 60.5557 39.4468C60.5671 39.4569 60.5813 39.4624 60.596 39.4624C60.6107 39.4624 60.6249 39.4569 60.6363 39.4468C60.6476 39.4367 60.6554 39.4226 60.6583 39.407C60.7124 38.7459 60.8564 38.0971 61.0857 37.4817C61.1126 37.3996 60.9929 37.3652 60.966 37.4473Z" fill="#EE8700"/>
<path d="M49.3521 47.4368C48.8545 46.2697 48.5613 45.0124 48.4875 43.7291C48.4875 43.6417 48.358 43.6417 48.3629 43.7291C48.4384 45.038 48.7374 46.3204 49.2447 47.5109C49.2789 47.5904 49.3863 47.5109 49.3521 47.4421V47.4368Z" fill="#EE8700"/>
<path d="M50.9127 47.2912C51.5396 46.2733 51.89 45.0849 51.9239 43.8616C51.9211 43.8459 51.9133 43.8319 51.9019 43.8218C51.8906 43.8117 51.8763 43.8062 51.8617 43.8062C51.847 43.8062 51.8327 43.8117 51.8214 43.8218C51.81 43.8319 51.8022 43.8459 51.7994 43.8616C51.7647 45.0606 51.4203 46.2251 50.8053 47.2223C50.7613 47.2938 50.8688 47.3627 50.9127 47.2912Z" fill="#EE8700"/>
<path d="M41.3235 22.2751C43.617 23.9859 46.5309 24.6294 49.2103 23.6681C49.225 23.6612 49.2368 23.6485 49.2433 23.6326C49.2498 23.6167 49.2504 23.5987 49.2452 23.5823C49.2399 23.5658 49.2291 23.5521 49.2149 23.544C49.2007 23.5358 49.1842 23.5338 49.1687 23.5383C46.5382 24.4864 43.6634 23.8588 41.4065 22.1744C41.3406 22.1268 41.2575 22.2274 41.3235 22.2751Z" fill="#EE8700"/>
<path d="M27.8754 42.5401C28.679 42.5772 29.2041 43.3346 29.5534 44.0311C29.5574 44.0388 29.5628 44.0455 29.5692 44.0509C29.5756 44.0563 29.5829 44.0603 29.5907 44.0626C29.5985 44.0649 29.6067 44.0656 29.6147 44.0645C29.6228 44.0634 29.6306 44.0606 29.6376 44.0563C29.6447 44.0519 29.6509 44.0461 29.6559 44.0392C29.6609 44.0322 29.6645 44.0243 29.6667 44.0158C29.6688 44.0073 29.6694 43.9984 29.6684 43.9897C29.6674 43.981 29.6649 43.9725 29.6608 43.9649C29.2896 43.2154 28.7278 42.4448 27.8754 42.405C27.7948 42.405 27.7948 42.5348 27.8754 42.5401Z" fill="#EE8700"/>
<path d="M63.6088 43.4325C63.5784 43.0676 63.6317 42.7002 63.7637 42.3629C63.8958 42.0256 64.1027 41.729 64.366 41.4993C64.4271 41.4436 64.3391 41.3483 64.2781 41.4039C64.0028 41.6459 63.7866 41.9574 63.6482 42.311C63.5098 42.6647 63.4535 43.0498 63.4843 43.4325C63.4843 43.5173 63.6162 43.5173 63.6088 43.4325Z" fill="#EE8700"/>
<path d="M40.894 45.7339C40.8864 45.7455 40.8823 45.7594 40.8823 45.7736C40.8823 45.7879 40.8864 45.8017 40.894 45.8133C40.8987 45.8267 40.9066 45.8384 40.9169 45.8472C40.9272 45.8561 40.9395 45.8618 40.9526 45.8637C40.9657 45.8673 40.9796 45.8664 40.9923 45.8612C41.0049 45.856 41.0158 45.8467 41.0234 45.8345C41.0747 45.7524 41.0234 45.62 41.0234 45.5247C41.0234 45.3843 41.0234 45.244 41.0234 45.1036C41.0947 44.2218 41.439 43.392 42.0004 42.7492C42.0541 42.6857 41.9662 42.5903 41.9125 42.6539C41.3774 43.2758 41.0357 44.0641 40.9355 44.9076C40.9184 45.0453 40.9086 45.1857 40.9037 45.3261C40.9037 45.4002 40.9037 45.477 40.9037 45.5512C40.9037 45.6253 40.933 45.726 40.9037 45.7657L40.9721 45.7339L40.9892 45.7471V45.8292C41.0478 45.771 40.9599 45.6756 40.9013 45.7339H40.894Z" fill="#EE8700"/>
</g>
<defs>
<clipPath id="clip0_301_386">
<rect width="90.1499" height="72" fill="white" transform="translate(0.878418)"/>
</clipPath>
</defs>
</svg>
