<svg width="57" height="57" viewBox="0 0 57 57" fill="none" xmlns="http://www.w3.org/2000/svg">
<g clip-path="url(#clip0_301_229)">
<path d="M48.6534 48.6517C59.7834 37.5218 59.7834 19.4766 48.6534 8.34666C37.5235 -2.78328 19.4783 -2.78327 8.34834 8.34667C-2.7816 19.4766 -2.78161 37.5218 8.34834 48.6517C19.4783 59.7817 37.5235 59.7817 48.6534 48.6517Z" fill="#EF5A39"/>
<path d="M11.403 20.7615C14.9984 20.7615 17.913 17.8469 17.913 14.2515C17.913 10.6561 14.9984 7.74152 11.403 7.74152C7.80769 7.74152 4.89307 10.6561 4.89307 14.2515C4.89307 17.8469 7.80769 20.7615 11.403 20.7615Z" fill="black" stroke="black" stroke-width="3" stroke-miterlimit="10"/>
<path d="M15.3424 15.8564C15.7422 14.1703 14.6995 12.4794 13.0134 12.0795C11.3274 11.6797 9.63644 12.7224 9.23662 14.4085C8.83681 16.0946 9.87952 17.7855 11.5656 18.1854C13.2517 18.5852 14.9426 17.5424 15.3424 15.8564Z" fill="#FFC5AE"/>
<path d="M45.3742 20.7615C48.9696 20.7615 51.8842 17.8469 51.8842 14.2515C51.8842 10.6561 48.9696 7.74152 45.3742 7.74152C41.7789 7.74152 38.8643 10.6561 38.8643 14.2515C38.8643 17.8469 41.7789 20.7615 45.3742 20.7615Z" fill="black" stroke="black" stroke-width="3" stroke-miterlimit="10"/>
<path d="M46.8341 17.2124C47.9826 15.9148 47.8616 13.9319 46.564 12.7835C45.2664 11.6351 43.2835 11.756 42.1351 13.0536C40.9866 14.3512 41.1076 16.3341 42.4052 17.4826C43.7028 18.631 45.6857 18.5101 46.8341 17.2124Z" fill="#FFC5AE"/>
<path d="M11.403 20.7615C14.9984 20.7615 17.913 17.8469 17.913 14.2515C17.913 10.6561 14.9984 7.74152 11.403 7.74152C7.80769 7.74152 4.89307 10.6561 4.89307 14.2515C4.89307 17.8469 7.80769 20.7615 11.403 20.7615Z" fill="black" stroke="black" stroke-width="3" stroke-miterlimit="10"/>
<path d="M15.3424 15.8564C15.7422 14.1703 14.6995 12.4794 13.0134 12.0795C11.3274 11.6797 9.63644 12.7224 9.23662 14.4085C8.83681 16.0946 9.87952 17.7855 11.5656 18.1854C13.2517 18.5852 14.9426 17.5424 15.3424 15.8564Z" fill="#FFC5AE"/>
<path d="M45.3742 20.7615C48.9696 20.7615 51.8842 17.8469 51.8842 14.2515C51.8842 10.6561 48.9696 7.74152 45.3742 7.74152C41.7789 7.74152 38.8643 10.6561 38.8643 14.2515C38.8643 17.8469 41.7789 20.7615 45.3742 20.7615Z" fill="black" stroke="black" stroke-width="3" stroke-miterlimit="10"/>
<path d="M46.8341 17.2124C47.9826 15.9148 47.8616 13.9319 46.564 12.7835C45.2664 11.6351 43.2835 11.756 42.1351 13.0536C40.9866 14.3512 41.1076 16.3341 42.4052 17.4826C43.7028 18.631 45.6857 18.5101 46.8341 17.2124Z" fill="#FFC5AE"/>
<path d="M37.187 10.864C34.384 9.76551 31.3992 9.20471 28.3886 9.21093C16.1395 9.21093 6.21191 18.2442 6.21191 29.3853C6.21191 40.5263 16.1485 49.5596 28.3886 49.5596C37.8495 49.5596 45.9222 44.1667 49.1049 36.5757C50.0661 34.3003 50.5617 31.8554 50.5623 29.3853C50.5623 21.0897 45.061 13.9654 37.187 10.864Z" fill="white"/>
<path d="M24.7784 28.1296C24.7784 32.559 21.2103 36.8347 16.5069 37.446C11.4302 38.1084 7.54895 34.2542 8.16923 29.1474C8.74736 24.3959 13.0201 20.7796 17.4584 20.7796C18.4266 20.764 19.3879 20.9437 20.285 21.3079C21.1821 21.6722 21.9966 22.2135 22.6799 22.8995C23.3631 23.5856 23.9011 24.4023 24.2617 25.3009C24.6222 26.1995 24.798 27.1616 24.7784 28.1296Z" fill="black"/>
<path d="M31.9991 28.1296C31.9991 32.5589 35.5642 36.8347 40.2675 37.446C45.3442 38.1084 49.2255 34.2542 48.6053 29.1474C48.0271 24.3959 43.7544 20.7796 39.316 20.7796C38.3481 20.764 37.3869 20.9437 36.4899 21.308C35.593 21.6722 34.7787 22.2136 34.0956 22.8997C33.4126 23.5858 32.875 24.4025 32.5147 25.3011C32.1545 26.1997 31.9791 27.1617 31.9991 28.1296Z" fill="black"/>
<path d="M18.2385 33.2063C19.5688 33.2063 20.6473 32.1278 20.6473 30.7974C20.6473 29.467 19.5688 28.3885 18.2385 28.3885C16.9081 28.3885 15.8296 29.467 15.8296 30.7974C15.8296 32.1278 16.9081 33.2063 18.2385 33.2063Z" stroke="white" stroke-width="2" stroke-miterlimit="10"/>
<path d="M16.844 30.7975C16.824 30.7634 16.8059 30.7282 16.7898 30.6921C16.7467 30.5975 16.7241 30.4949 16.7236 30.391C16.7159 30.2402 16.7395 30.0895 16.7928 29.9483C16.8241 29.8683 16.8635 29.7916 16.9103 29.7195C17.005 29.5685 17.1327 29.4409 17.2837 29.3461C17.3558 29.2993 17.4324 29.26 17.5125 29.2287C17.5878 29.2016 17.6654 29.1814 17.7444 29.1685C17.8143 29.1596 17.8852 29.1596 17.9551 29.1685C18.0142 29.1682 18.073 29.1763 18.1298 29.1926C18.1744 29.2017 18.2178 29.2158 18.2592 29.2347C18.2958 29.2499 18.331 29.268 18.3646 29.2889L18.2683 29.3552C18.205 29.3883 18.1238 29.4455 18.0394 29.5027C17.8482 29.6354 17.6688 29.7845 17.5035 29.9483C17.3395 30.1125 17.1904 30.2909 17.0578 30.4813C17.0006 30.5716 16.9434 30.6409 16.9103 30.7102C16.8772 30.7794 16.844 30.7975 16.844 30.7975Z" fill="white"/>
<path d="M38.5358 33.2063C39.8662 33.2063 40.9447 32.1278 40.9447 30.7974C40.9447 29.467 39.8662 28.3885 38.5358 28.3885C37.2054 28.3885 36.127 29.467 36.127 30.7974C36.127 32.1278 37.2054 33.2063 38.5358 33.2063Z" stroke="white" stroke-width="2" stroke-miterlimit="10"/>
<path d="M37.1419 30.7975C37.1219 30.7634 37.1038 30.7282 37.0877 30.6921C37.0446 30.5975 37.022 30.4949 37.0215 30.391C37.0137 30.2402 37.0373 30.0895 37.0907 29.9483C37.122 29.8683 37.1613 29.7916 37.2081 29.7195C37.2581 29.6462 37.3135 29.5768 37.3738 29.5117C37.4382 29.4508 37.5077 29.3953 37.5815 29.3461C37.6536 29.2993 37.7303 29.26 37.8104 29.2287C37.8847 29.202 37.9613 29.1818 38.0392 29.1685C38.1102 29.1597 38.182 29.1597 38.253 29.1685C38.3121 29.1682 38.3708 29.1763 38.4276 29.1926C38.4723 29.2017 38.5157 29.2158 38.5571 29.2347C38.5936 29.2499 38.6289 29.2681 38.6625 29.2889L38.5631 29.3552C38.5029 29.3883 38.4216 29.4455 38.3343 29.5027C38.1446 29.6362 37.9663 29.7853 37.8013 29.9483C37.6374 30.1125 37.4883 30.2909 37.3557 30.4813C37.2985 30.5716 37.2413 30.6409 37.2051 30.7102C37.1856 30.7403 37.1645 30.7695 37.1419 30.7975Z" fill="white"/>
<path d="M28.1719 36.9732C28.3014 37.2352 28.1719 38.1475 28.1719 38.1475C28.1719 38.1475 27.2204 40.2914 24.5225 39.352" stroke="black" stroke-width="3" stroke-linecap="round" stroke-linejoin="round"/>
<path d="M28.6025 36.9732C28.473 37.2352 28.6025 38.1475 28.6025 38.1475C28.6025 38.1475 29.554 40.2914 32.2519 39.352" stroke="black" stroke-width="3" stroke-linecap="round" stroke-linejoin="round"/>
<path d="M30.8214 33.1913H25.9043C25.2298 33.1913 24.8143 34.3957 25.1636 34.8745C26.0007 36.0097 27.3707 37.6326 28.3644 37.6326C29.358 37.6326 30.7251 36.0097 31.5622 34.8745C31.9114 34.3987 31.511 33.1913 30.8214 33.1913Z" fill="black"/>
</g>
<defs>
<clipPath id="clip0_301_229">
<rect width="57" height="57" fill="white"/>
</clipPath>
</defs>
</svg>
