<svg width="28" height="29" viewBox="0 0 28 29" fill="none" xmlns="http://www.w3.org/2000/svg">
<g clip-path="url(#clip0_301_20)">
<path d="M4.97607 26.0774C4.97607 23.6558 5.93805 21.3334 7.65038 19.621C9.36272 17.9087 11.6851 16.9467 14.1067 16.9467C16.5283 16.9467 18.8508 17.9087 20.5631 19.621C22.2754 21.3334 23.2374 23.6558 23.2374 26.0774H20.9547C20.9547 24.2612 20.2333 22.5194 18.949 21.2351C17.6648 19.9509 15.9229 19.2294 14.1067 19.2294C12.2905 19.2294 10.5487 19.9509 9.26447 21.2351C7.98022 22.5194 7.25874 24.2612 7.25874 26.0774H4.97607ZM14.1067 15.8054C10.3232 15.8054 7.25874 12.7409 7.25874 8.95738C7.25874 5.17386 10.3232 2.10938 14.1067 2.10938C17.8903 2.10938 20.9547 5.17386 20.9547 8.95738C20.9547 12.7409 17.8903 15.8054 14.1067 15.8054ZM14.1067 13.5227C16.6291 13.5227 18.6721 11.4797 18.6721 8.95738C18.6721 6.43503 16.6291 4.39204 14.1067 4.39204C11.5844 4.39204 9.54141 6.43503 9.54141 8.95738C9.54141 11.4797 11.5844 13.5227 14.1067 13.5227Z" fill="#B8BBC1"/>
</g>
<defs>
<clipPath id="clip0_301_20">
<rect width="27.392" height="27.392" fill="white" transform="translate(0.410645 0.968018)"/>
</clipPath>
</defs>
</svg>
